# xmcd
#
# Track frame offsets: 
#        150
#        15067
#        28505
#        43358
#        58619
#        74375
#        96193
#        108452
#        123934
#        136311
#
# Disc length: 1958 seconds
#
# Revision: 0
# Processed by: cddbd v1.5.2PL0 Copyright (c) Steve Scherf et al.
# Submitted via: ExactAudioCopy v1.0b1
#
DISCID=8107a40a
DTITLE=High Tide In The Heartland - Phil Pritchett And The Full Band
DYEAR=2006
DGENRE=Country
TTITLE0=Song Of The Doorman
TTITLE1=She Don't Even Know The Real Me
TTITLE2=Bood Warm Rain
TTITLE3=High Tide In The Heartland
TTITLE4=Released
TTITLE5=Mary Had A Baby Boy
TTITLE6=Temptation's Gate
TTITLE7=Best Part Of A Man
TTITLE8=Locks
TTITLE9=Where Do You Go When You Sleep At Night?
EXTD=
EXTT0=
EXTT1=
EXTT2=
EXTT3=
EXTT4=
EXTT5=
EXTT6=
EXTT7=
EXTT8=
EXTT9=
PLAYORDER=
